# xmcd
#
# Track frame offsets:
#	150
#	15685
#	28408
#	44640
#	56018
#	60293
#	63948
#	84663
#	99770
#	108218
#	125183
#	138040
#	150023
#	164440
#	172775
#	193725
#	202793
#	226280
#	243878
#	274343
#	288825
#
# Disc length: 3949 seconds
#
# Revision: 1
# Processed by: cddbd v1.5.2PL0 Copyright (c) Steve Scherf et al.
# Submitted via: audiograbber 1.83.01
#
DISCID=110f6b15
DTITLE=Mijnheer Rijkswaterstaat - Mijnheer Rijkswaterstaat
DYEAR=1994
DGENRE=Pop
TTITLE0=Bolle Jos and De Helmduikers - 1. Meneer Rijkswaterstaat
TTITLE1=Luc Dordregter - 2. Schoenmaker Frans
TTITLE2=Jos Molenaar and Luc Dordregter - 3. Giftig slib
TTITLE3=Jan-Paul v.d. Meij - 4. Als de knoppen opengaan
TTITLE4=Koor St. Oduiphuskerk - 5. Rijkswaterstaat
TTITLE5=Mutoid Waste Company - 6. The waste
TTITLE6=Luc Dordregter and Jos Molenaar - 7. Bal die vuist
TTITLE7=Jos Molenaar and Trdlo - 8. Ja de groeten
TTITLE8=George Kotte - 9. Nee nee nee
TTITLE9=Ab Winkel - 10. Opgeruimd staat netjes
TTITLE10=Terry Davis - 11. Exodus in Wijk aan Zee
TTITLE11=Bolle Jos - 12. Stop Wijk aan Zee, vecht Wijk aan Zee
TTITLE12=Aad and the Adaptors - 13. Castles in the slib
TTITLE13=Martin Velthuys - 14. Het strand van Wijk aan Zee
TTITLE14=Gedeputeerde G. de Boer - 15. De baggerspecie mix
TTITLE15=De Kanaaldempers - 16 Dempe dempe
TTITLE16=Michel en zijn Boiky Boiky Band - 17. Zonder strand kan 'n jutter
TTITLE17=De Familie Honderd - 18. Kust-matige inseminatie
TTITLE18=Lambertus Kisjes - 19. Sprookje van het zeldzame plantje
TTITLE19=Bolle Jos - 20. Attila op de buldozer
TTITLE20=Koor St. Oduiphuskerk - 21. Modder modder
EXTD=
EXTT0=
EXTT1=
EXTT2=
EXTT3=
EXTT4=
EXTT5=
EXTT6=
EXTT7=
EXTT8=
EXTT9=
EXTT10=
EXTT11=
EXTT12=
EXTT13=
EXTT14=
EXTT15=
EXTT16=
EXTT17=
EXTT18=
EXTT19=
EXTT20=
PLAYORDER=
